<svg xmlns="http://www.w3.org/2000/svg" version="1.1" xmlns:xlink="http://www.w3.org/1999/xlink" xmlns:svgjs="http://svgjs.dev/svgjs" width="1500" height="1500" viewBox="0 0 1500 1500"><rect width="1500" height="1500" fill="#ffffff"></rect><g transform="matrix(0.6666666666666666,0,0,0.6666666666666666,250.34713713957694,231.75330634278015)"><svg viewBox="0 0 238 247" data-background-color="#162836" preserveAspectRatio="xMidYMid meet" height="1556" width="1500" xmlns="http://www.w3.org/2000/svg" xmlns:xlink="http://www.w3.org/1999/xlink"><g id="tight-bounds" transform="matrix(1,0,0,1,-0.08261863921930512,-0.09999999999999432)"><svg viewBox="0 0 238.1652372784386 247.2" height="247.2" width="238.1652372784386"><g><svg viewBox="0 0 395.52 410.52399215463277" height="247.2" width="238.1652372784386"><g transform="matrix(1,0,0,1,0,281.67037456635825)"><svg viewBox="0 0 395.52 128.8536175882745" height="128.8536175882745" width="395.52"><g id="textblocktransform"><svg viewBox="0 0 395.52 128.8536175882745" height="128.8536175882745" width="395.52" id="textblock"><g><svg viewBox="0 0 395.52 128.8536175882745" height="128.8536175882745" width="395.52"><g transform="matrix(1,0,0,1,0,0)"><svg width="395.52" viewBox="2.08 -33.33 104.23 33.959999999999994" height="128.8536175882745" data-palette-color="#cf7650"><path d="M18.4 0.63L18.4 0.63Q15.03 0.63 12.07-0.64 9.1-1.91 6.86-4.13 4.62-6.35 3.35-9.31 2.08-12.26 2.08-15.63L2.08-15.63Q2.08-18.99 3.35-21.94 4.62-24.9 6.86-27.12 9.1-29.34 12.07-30.61 15.03-31.88 18.4-31.88L18.4-31.88Q21.74-31.88 24.65-30.64 27.57-29.41 29.79-27.26L29.79-27.26 28.65-22.47Q27.05-25.03 24.36-26.58 21.67-28.13 18.4-28.13L18.4-28.13Q14.97-28.13 12.2-26.44 9.44-24.76 7.81-21.93 6.18-19.1 6.18-15.63L6.18-15.63Q6.18-12.19 7.81-9.34 9.44-6.49 12.2-4.81 14.97-3.13 18.4-3.13L18.4-3.13Q21.7-3.13 24.38-4.69 27.05-6.25 28.65-8.78L28.65-8.78 29.79-3.99Q27.57-1.88 24.65-0.63 21.74 0.63 18.4 0.63ZM44.09 0.42L44.09 0.42Q41.07 0.42 38.57-1.04 36.07-2.5 34.6-4.97 33.12-7.43 33.12-10.42L33.12-10.42Q33.12-13.44 34.6-15.89 36.07-18.33 38.57-19.79 41.07-21.25 44.09-21.25L44.09-21.25Q47.15-21.25 49.63-19.79 52.12-18.33 53.59-15.89 55.07-13.44 55.07-10.42L55.07-10.42Q55.07-7.43 53.59-4.97 52.12-2.5 49.63-1.04 47.15 0.42 44.09 0.42ZM44.09-3.13L44.09-3.13Q46.11-3.13 47.74-4.11 49.37-5.1 50.34-6.75 51.32-8.4 51.32-10.42L51.32-10.42Q51.32-12.43 50.34-14.08 49.37-15.73 47.74-16.72 46.11-17.71 44.09-17.71L44.09-17.71Q42.08-17.71 40.45-16.72 38.82-15.73 37.84-14.08 36.87-12.43 36.87-10.42L36.87-10.42Q36.87-8.4 37.84-6.75 38.82-5.1 40.45-4.11 42.08-3.13 44.09-3.13ZM69.2 0.28L69.2 0.28Q66.35 0.28 63.99-1.16 61.63-2.6 60.22-5.03 58.81-7.47 58.81-10.42L58.81-10.42Q58.81-13.37 60.22-15.8 61.63-18.23 63.99-19.67 66.35-21.11 69.2-21.11L69.2-21.11Q71.25-21.11 73.05-20.38 74.86-19.65 76.25-18.37L76.25-18.37 76.25-33.33 80-33.33 80 0 76.52 0 76.52-2.74Q75.13-1.35 73.24-0.54 71.35 0.28 69.2 0.28ZM69.68-3.13L69.68-3.13Q71.66-3.13 73.28-4.11 74.89-5.1 75.85-6.75 76.8-8.4 76.8-10.42L76.8-10.42Q76.8-12.43 75.85-14.08 74.89-15.73 73.28-16.72 71.66-17.71 69.68-17.71L69.68-17.71Q67.7-17.71 66.09-16.72 64.47-15.73 63.52-14.08 62.56-12.43 62.56-10.42L62.56-10.42Q62.56-8.4 63.52-6.75 64.47-5.1 66.09-4.11 67.7-3.13 69.68-3.13ZM96.59 0.42L96.59 0.42Q93.33 0.42 90.74-1.04 88.15-2.5 86.68-5.02 85.2-7.53 85.2-10.63L85.2-10.63Q85.2-13.58 86.62-15.99 88.05-18.4 90.46-19.83 92.87-21.25 95.79-21.25L95.79-21.25Q98.67-21.25 101.07-19.88 103.46-18.51 104.89-16.18 106.31-13.85 106.31-10.9L106.31-10.9 106.31-9.38 92.7-9.38Q91.8-9.38 90.86-9.44 89.92-9.51 89.02-9.65L89.02-9.65Q89.4-6.88 91.54-5 93.67-3.13 96.62-3.13L96.62-3.13Q98.6-3.13 100.31-4.03 102.01-4.93 103.05-6.42L103.05-6.42 104.09-2.15Q102.6-0.94 100.67-0.26 98.74 0.42 96.59 0.42ZM88.92-12.19L88.92-12.19Q90.79-12.5 92.7-12.5L92.7-12.5 99.61-12.5Q100.37-12.5 101.12-12.45 101.87-12.4 102.63-12.33L102.63-12.33Q102.15-14.76 100.2-16.34 98.26-17.92 95.79-17.92L95.79-17.92Q93.26-17.92 91.35-16.23 89.44-14.55 88.92-12.19Z" opacity="1" transform="matrix(1,0,0,1,0,0)" fill="#000000" class="wordmark-text-0" data-fill-palette-color="primary" id="text-0"></path></svg></g></svg></g></svg></g></svg></g><g transform="matrix(1,0,0,1,87.34405934259036,0)"><svg viewBox="0 0 220.83188131481927 220.83188131481927" height="220.83188131481927" width="220.83188131481927"><g><svg></svg></g><g id="icon-0"><svg viewBox="0 0 220.83188131481927 220.83188131481927" height="220.83188131481927" width="220.83188131481927"><g><path d="M0 110.416c0-60.981 49.435-110.416 110.416-110.416 60.981 0 110.416 49.435 110.416 110.416 0 60.981-49.435 110.416-110.416 110.416-60.981 0-110.416-49.435-110.416-110.416zM110.416 209.212c54.563 0 98.796-44.232 98.796-98.796 0-54.563-44.232-98.796-98.796-98.796-54.563 0-98.796 44.232-98.796 98.796 0 54.563 44.232 98.796 98.796 98.796z" data-fill-palette-color="accent" fill="#000000" stroke="transparent"></path></g><g transform="matrix(1,0,0,1,52.4834953154336,73.91850009196473)"><svg viewBox="0 0 115.86489068395207 72.99488113088981" height="72.99488113088981" width="115.86489068395207"><g><svg xmlns="http://www.w3.org/2000/svg" xmlns:xlink="http://www.w3.org/1999/xlink" version="1.1" x="0" y="0" viewBox="0 17 100 63" enable-background="new 0 0 100 100" xml:space="preserve" height="72.99488113088981" width="115.86489068395207" class="icon-dxe-0" data-fill-palette-color="accent" id="dxe-0"><path fill-rule="evenodd" clip-rule="evenodd" d="M0 17V80H100V17zM91 70H9V39H91z" fill="#000000" data-fill-palette-color="accent"></path><path fill-rule="evenodd" clip-rule="evenodd" d="M59.375 53.643V56.768H81.25V53.643z" fill="#000000" data-fill-palette-color="accent"></path><path fill-rule="evenodd" clip-rule="evenodd" d="M21.875 66.143V61.282L26.563 55.206 21.875 49.13V44.269L30 55.205z" fill="#000000" data-fill-palette-color="accent"></path></svg></g></svg></g></svg></g></svg></g><g></g></svg></g><defs></defs></svg><rect width="238.1652372784386" height="247.2" fill="none" stroke="none" visibility="hidden"></rect></g></svg></g></svg>